# xmcd CD database file
#
# Track frame offsets:
#	150
#	27270
#	46490
#	68935
#	86078
#	107360
#	135132
#	153737
#	171017
#	196114
#	219906
#	243213
#	268671
#	288076
#	311833
#
# Disc length: 4471 seconds
#
# Revision: 1
# Processed by: cddbd v1.5.2PL0 Copyright (c) Steve Scherf et al.
# Submitted via: jetAudio 5
#
DISCID=c711750f
DTITLE=John Campbell - Best Of
DYEAR=1900
DGENRE=
TTITLE0=Devil In My Closet
TTITLE1=Angel Of Sorrow
TTITLE2=Wild Streak
TTITLE3=Couldn't Do Nothin'
TTITLE4=Tiny Coffin
TTITLE5=World Of Trouble
TTITLE6=Voodoo Edge
TTITLE7=Person To Person
TTITLE8=One Believer
TTITLE9=Ain't Afraid of Midnight
TTITLE10=Look What Love Can Do
TTITLE11=Firin' Line
TTITLE12=Love's Name
TTITLE13=Written in Stone
TTITLE14=Wiseblood
EXTD=
EXTT0=
EXTT1=
EXTT2=
EXTT3=
EXTT4=
EXTT5=
EXTT6=
EXTT7=
EXTT8=
EXTT9=
EXTT10=
EXTT11=
EXTT12=
EXTT13=
EXTT14=
PLAYORDER=
